<svg width="15" height="15" xmlns="http://www.w3.org/2000/svg"><g fill="#FFF" fill-rule="evenodd"><path d="M7.41 12c-2.753 0-5.237-1.757-6.378-4.49C2.168 4.764 4.656 3 7.417 3c2.752 0 5.236 1.757 6.376 4.49C12.657 10.236 10.17 12 7.41 12zm7.382-4.708C13.534 4.077 10.638 2 7.417 2 4.185 2 1.287 4.086.034 7.314L0 7.401l.034.308C1.294 10.923 4.187 13 7.41 13c3.231 0 6.13-2.086 7.383-5.314l.034-.118-.034-.276z"/><path d="M7.47 4.49c-1.654.01-3.01 1.37-3.004 3.017a3.032 3.032 0 0 0 3.013 3.012c1.646.002 3.01-1.36 3.013-3.01.002-1.657-1.374-3.032-3.02-3.02"/></g></svg>
