<svg width="37" height="32" xmlns="http://www.w3.org/2000/svg"><g fill="none" fill-rule="evenodd" opacity=".5"><path d="M5.75 30.75h25.234a5 5 0 0 0 5-5v-20a5 5 0 0 0-5-5H5.75a5 5 0 0 0-5 5v20a5 5 0 0 0 5 5z" stroke="#FFF" stroke-width="1.5"/><path d="M5.75 26.925h25.234a5 5 0 0 0 5-5V5.75a5 5 0 0 0-5-5H5.75a5 5 0 0 0-5 5v16.175a5 5 0 0 0 5 5z" stroke="#FFF" stroke-width="1.5"/><path d="M25.42 13.888H10.721" fill="#000"/><path d="M25.42 13.888H10.721" stroke="#FFF" stroke-width="1.5" stroke-linecap="round"/><path d="M17.164 7.444l-6.442 6.443" fill="#000"/><path d="M17.164 7.444l-6.442 6.443" stroke="#FFF" stroke-width="1.5" stroke-linecap="round"/><path d="M10.722 13.888l6.442 6.442" fill="#000"/><path d="M10.722 13.888l6.442 6.442" stroke="#FFF" stroke-width="1.5" stroke-linecap="round"/></g></svg>
