<svg width="37" height="32" xmlns="http://www.w3.org/2000/svg"><g fill="none" fill-rule="evenodd" opacity=".5"><path d="M30.985 30.75H5.75a5 5 0 0 1-5-5v-20a5 5 0 0 1 5-5h25.234a5 5 0 0 1 5 5v20a5 5 0 0 1-5 5z" stroke="#FFF" stroke-width="1.5"/><path d="M30.985 26.925H5.75a5 5 0 0 1-5-5V5.75a5 5 0 0 1 5-5h25.234a5 5 0 0 1 5 5v16.175a5 5 0 0 1-5 5z" stroke="#FFF" stroke-width="1.5"/><path d="M11.316 13.888h14.697" fill="#000"/><path d="M11.316 13.888h14.697" stroke="#FFF" stroke-width="1.5" stroke-linecap="round"/><path d="M19.57 7.444l6.443 6.443" fill="#000"/><path d="M19.57 7.444l6.443 6.443" stroke="#FFF" stroke-width="1.5" stroke-linecap="round"/><path d="M26.013 13.888l-6.442 6.442" fill="#000"/><path d="M26.013 13.888l-6.442 6.442" stroke="#FFF" stroke-width="1.5" stroke-linecap="round"/></g></svg>
